# xmcd
#
# Track frame offsets: 
#        150
#        12656
#        30586
#        44849
#        68646
#        91477
#        113620
#        144343
#        163567
#        191650
#        208637
#        228592
#        262657
#        278458
#
# Disc length: 3959 seconds
#
# Revision: 1
# Processed by: cddbd v1.5.1PL2 Copyright (c) Steve Scherf et al.
# Submitted via: ExactAudioCopy v0.95a4
#
DISCID=bb0f750e
DTITLE=James Brown - The Godfather Of Soul [Platinum Legends]
DYEAR=2003
DGENRE=Soul
TTITLE0=I Got You (I Feel Good)
TTITLE1=Let Yourself Go
TTITLE2=Give It Up Or Turnit A Loose
TTITLE3=(Get Up I Feel Like Being A) Sex Machine, Pt. 1
TTITLE4=Hot (I Need To Be Loved, Loved, Loved)
TTITLE5=Licking Stick-Licking Stick
TTITLE6=Papa's Got A Brand New Bag, Pts. 1, 2 and 3
TTITLE7=My Thang
TTITLE8=Get Up Offa That Thing (Release The Pressure)
TTITLE9=I Got A Bag Of My Own
TTITLE10=Super Bad, Pts. 1 and 2
TTITLE11=Cold Sweat
TTITLE12=I Can't Stand Myself (When You Touch Me), Pt. 1
TTITLE13=Get On The Good Foot
EXTD=
EXTT0=
EXTT1=
EXTT2=
EXTT3=
EXTT4=
EXTT5=
EXTT6=
EXTT7=
EXTT8=
EXTT9=
EXTT10=
EXTT11=
EXTT12=
EXTT13=
PLAYORDER=
